<mxfile host="app.diagrams.net" modified="2023-04-30T16:22:49.573Z" agent="Mozilla/5.0 (Windows NT 10.0; Win64; x64) AppleWebKit/537.36 (KHTML, like Gecko) Chrome/112.0.0.0 Safari/537.36" etag="mW-o2Uy02FpNyXBUvNkk" version="21.2.3" type="device">
  <diagram name="Trang-1" id="ATv7yjRMBXmke3pbtFta">
    <mxGraphModel dx="1436" dy="740" grid="1" gridSize="10" guides="1" tooltips="1" connect="1" arrows="1" fold="1" page="1" pageScale="1" pageWidth="827" pageHeight="1169" math="0" shadow="0">
      <root>
        <mxCell id="0" />
        <mxCell id="1" parent="0" />
        <mxCell id="y8tanEOZA4e39XUYYDlI-2" value="Admin" style="shape=umlActor;verticalLabelPosition=bottom;verticalAlign=top;html=1;outlineConnect=0;" vertex="1" parent="1">
          <mxGeometry x="50" y="30" width="30" height="60" as="geometry" />
        </mxCell>
        <mxCell id="y8tanEOZA4e39XUYYDlI-5" value="" style="endArrow=none;dashed=1;html=1;rounded=0;" edge="1" parent="1" target="y8tanEOZA4e39XUYYDlI-2">
          <mxGeometry width="50" height="50" relative="1" as="geometry">
            <mxPoint x="60" y="950" as="sourcePoint" />
            <mxPoint x="60" y="120" as="targetPoint" />
          </mxGeometry>
        </mxCell>
        <mxCell id="y8tanEOZA4e39XUYYDlI-6" value=":ContractService" style="rounded=0;whiteSpace=wrap;html=1;" vertex="1" parent="1">
          <mxGeometry x="530" y="30" width="120" height="60" as="geometry" />
        </mxCell>
        <mxCell id="y8tanEOZA4e39XUYYDlI-7" value=":ContractCOntroller" style="rounded=0;whiteSpace=wrap;html=1;" vertex="1" parent="1">
          <mxGeometry x="350" y="30" width="120" height="60" as="geometry" />
        </mxCell>
        <mxCell id="y8tanEOZA4e39XUYYDlI-8" value="View" style="rounded=0;whiteSpace=wrap;html=1;" vertex="1" parent="1">
          <mxGeometry x="150" y="30" width="120" height="60" as="geometry" />
        </mxCell>
        <mxCell id="y8tanEOZA4e39XUYYDlI-9" value=":ContractRepository" style="rounded=0;whiteSpace=wrap;html=1;" vertex="1" parent="1">
          <mxGeometry x="720" y="30" width="120" height="60" as="geometry" />
        </mxCell>
        <mxCell id="y8tanEOZA4e39XUYYDlI-10" value="Database" style="rounded=0;whiteSpace=wrap;html=1;" vertex="1" parent="1">
          <mxGeometry x="890" y="30" width="120" height="60" as="geometry" />
        </mxCell>
        <mxCell id="y8tanEOZA4e39XUYYDlI-11" value="" style="endArrow=none;dashed=1;html=1;rounded=0;" edge="1" parent="1" target="y8tanEOZA4e39XUYYDlI-8">
          <mxGeometry width="50" height="50" relative="1" as="geometry">
            <mxPoint x="210" y="190" as="sourcePoint" />
            <mxPoint x="220" y="130" as="targetPoint" />
          </mxGeometry>
        </mxCell>
        <mxCell id="y8tanEOZA4e39XUYYDlI-12" value="" style="endArrow=none;dashed=1;html=1;rounded=0;entryX=0.537;entryY=0.833;entryDx=0;entryDy=0;entryPerimeter=0;" edge="1" parent="1" target="y8tanEOZA4e39XUYYDlI-9">
          <mxGeometry width="50" height="50" relative="1" as="geometry">
            <mxPoint x="784" y="310" as="sourcePoint" />
            <mxPoint x="790" y="120" as="targetPoint" />
          </mxGeometry>
        </mxCell>
        <mxCell id="y8tanEOZA4e39XUYYDlI-13" value="" style="endArrow=none;dashed=1;html=1;rounded=0;entryX=0.544;entryY=0.983;entryDx=0;entryDy=0;entryPerimeter=0;" edge="1" parent="1" target="y8tanEOZA4e39XUYYDlI-6">
          <mxGeometry width="50" height="50" relative="1" as="geometry">
            <mxPoint x="595" y="270" as="sourcePoint" />
            <mxPoint x="590" y="130" as="targetPoint" />
          </mxGeometry>
        </mxCell>
        <mxCell id="y8tanEOZA4e39XUYYDlI-14" value="" style="endArrow=none;dashed=1;html=1;rounded=0;entryX=0.533;entryY=1;entryDx=0;entryDy=0;entryPerimeter=0;" edge="1" parent="1" target="y8tanEOZA4e39XUYYDlI-7">
          <mxGeometry width="50" height="50" relative="1" as="geometry">
            <mxPoint x="414" y="230" as="sourcePoint" />
            <mxPoint x="414" y="110" as="targetPoint" />
          </mxGeometry>
        </mxCell>
        <mxCell id="y8tanEOZA4e39XUYYDlI-15" value="" style="endArrow=none;dashed=1;html=1;rounded=0;exitX=0.5;exitY=0;exitDx=0;exitDy=0;entryX=0.5;entryY=0.833;entryDx=0;entryDy=0;entryPerimeter=0;" edge="1" parent="1" source="y8tanEOZA4e39XUYYDlI-21" target="y8tanEOZA4e39XUYYDlI-10">
          <mxGeometry width="50" height="50" relative="1" as="geometry">
            <mxPoint x="960" y="360" as="sourcePoint" />
            <mxPoint x="940" y="130" as="targetPoint" />
          </mxGeometry>
        </mxCell>
        <mxCell id="y8tanEOZA4e39XUYYDlI-16" value="" style="rounded=0;whiteSpace=wrap;html=1;" vertex="1" parent="1">
          <mxGeometry x="205" y="190" width="10" height="640" as="geometry" />
        </mxCell>
        <mxCell id="y8tanEOZA4e39XUYYDlI-18" value="" style="rounded=0;whiteSpace=wrap;html=1;" vertex="1" parent="1">
          <mxGeometry x="409" y="230" width="10" height="550" as="geometry" />
        </mxCell>
        <mxCell id="y8tanEOZA4e39XUYYDlI-19" value="" style="rounded=0;whiteSpace=wrap;html=1;" vertex="1" parent="1">
          <mxGeometry x="590" y="270" width="10" height="470" as="geometry" />
        </mxCell>
        <mxCell id="y8tanEOZA4e39XUYYDlI-20" value="" style="rounded=0;whiteSpace=wrap;html=1;" vertex="1" parent="1">
          <mxGeometry x="780" y="310" width="10" height="400" as="geometry" />
        </mxCell>
        <mxCell id="y8tanEOZA4e39XUYYDlI-21" value="" style="rounded=0;whiteSpace=wrap;html=1;" vertex="1" parent="1">
          <mxGeometry x="945" y="360" width="10" height="330" as="geometry" />
        </mxCell>
        <mxCell id="y8tanEOZA4e39XUYYDlI-22" value="" style="endArrow=classic;html=1;rounded=0;entryX=0.111;entryY=0.051;entryDx=0;entryDy=0;entryPerimeter=0;" edge="1" parent="1" target="y8tanEOZA4e39XUYYDlI-16">
          <mxGeometry width="50" height="50" relative="1" as="geometry">
            <mxPoint x="60" y="223" as="sourcePoint" />
            <mxPoint x="140" y="210" as="targetPoint" />
          </mxGeometry>
        </mxCell>
        <mxCell id="y8tanEOZA4e39XUYYDlI-23" value="1.Search&amp;nbsp; infor contract" style="edgeLabel;html=1;align=center;verticalAlign=middle;resizable=0;points=[];" vertex="1" connectable="0" parent="y8tanEOZA4e39XUYYDlI-22">
          <mxGeometry x="0.1323" y="1" relative="1" as="geometry">
            <mxPoint x="-5" y="-19" as="offset" />
          </mxGeometry>
        </mxCell>
        <mxCell id="y8tanEOZA4e39XUYYDlI-24" value="" style="endArrow=classic;html=1;rounded=0;entryX=-0.022;entryY=0.071;entryDx=0;entryDy=0;entryPerimeter=0;exitX=1;exitY=0.126;exitDx=0;exitDy=0;exitPerimeter=0;" edge="1" parent="1" source="y8tanEOZA4e39XUYYDlI-16" target="y8tanEOZA4e39XUYYDlI-18">
          <mxGeometry width="50" height="50" relative="1" as="geometry">
            <mxPoint x="260" y="290" as="sourcePoint" />
            <mxPoint x="310" y="240" as="targetPoint" />
          </mxGeometry>
        </mxCell>
        <mxCell id="y8tanEOZA4e39XUYYDlI-25" value="3.getContractByName()" style="edgeLabel;html=1;align=center;verticalAlign=middle;resizable=0;points=[];" vertex="1" connectable="0" parent="y8tanEOZA4e39XUYYDlI-24">
          <mxGeometry x="0.5434" y="1" relative="1" as="geometry">
            <mxPoint x="-55" y="-18" as="offset" />
          </mxGeometry>
        </mxCell>
        <mxCell id="y8tanEOZA4e39XUYYDlI-26" value="" style="endArrow=classic;html=1;rounded=0;entryX=0.121;entryY=0.053;entryDx=0;entryDy=0;entryPerimeter=0;exitX=0.9;exitY=0.12;exitDx=0;exitDy=0;exitPerimeter=0;" edge="1" parent="1" source="y8tanEOZA4e39XUYYDlI-18" target="y8tanEOZA4e39XUYYDlI-19">
          <mxGeometry width="50" height="50" relative="1" as="geometry">
            <mxPoint x="440" y="330" as="sourcePoint" />
            <mxPoint x="490" y="280" as="targetPoint" />
          </mxGeometry>
        </mxCell>
        <mxCell id="y8tanEOZA4e39XUYYDlI-27" value="4.searchByName()" style="edgeLabel;html=1;align=center;verticalAlign=middle;resizable=0;points=[];" vertex="1" connectable="0" parent="y8tanEOZA4e39XUYYDlI-26">
          <mxGeometry x="-0.3451" relative="1" as="geometry">
            <mxPoint x="25" y="-23" as="offset" />
          </mxGeometry>
        </mxCell>
        <mxCell id="y8tanEOZA4e39XUYYDlI-28" value="" style="endArrow=classic;html=1;rounded=0;entryX=-0.039;entryY=0.035;entryDx=0;entryDy=0;entryPerimeter=0;exitX=0.88;exitY=0.123;exitDx=0;exitDy=0;exitPerimeter=0;" edge="1" parent="1" source="y8tanEOZA4e39XUYYDlI-19" target="y8tanEOZA4e39XUYYDlI-20">
          <mxGeometry width="50" height="50" relative="1" as="geometry">
            <mxPoint x="630" y="350" as="sourcePoint" />
            <mxPoint x="680" y="300" as="targetPoint" />
          </mxGeometry>
        </mxCell>
        <mxCell id="y8tanEOZA4e39XUYYDlI-29" value="5.searchByName()" style="edgeLabel;html=1;align=center;verticalAlign=middle;resizable=0;points=[];" vertex="1" connectable="0" parent="y8tanEOZA4e39XUYYDlI-28">
          <mxGeometry x="-0.1282" y="-2" relative="1" as="geometry">
            <mxPoint x="12" y="-26" as="offset" />
          </mxGeometry>
        </mxCell>
        <mxCell id="y8tanEOZA4e39XUYYDlI-30" value="" style="endArrow=classic;html=1;rounded=0;entryX=0.014;entryY=0.066;entryDx=0;entryDy=0;entryPerimeter=0;" edge="1" parent="1" target="y8tanEOZA4e39XUYYDlI-21">
          <mxGeometry width="50" height="50" relative="1" as="geometry">
            <mxPoint x="790" y="380" as="sourcePoint" />
            <mxPoint x="850" y="360" as="targetPoint" />
          </mxGeometry>
        </mxCell>
        <mxCell id="y8tanEOZA4e39XUYYDlI-31" value="6.executeQuery" style="edgeLabel;html=1;align=center;verticalAlign=middle;resizable=0;points=[];" vertex="1" connectable="0" parent="y8tanEOZA4e39XUYYDlI-30">
          <mxGeometry x="-0.059" relative="1" as="geometry">
            <mxPoint y="-20" as="offset" />
          </mxGeometry>
        </mxCell>
        <mxCell id="jdpxN7b3ZD2J9c9i_rUH-1" value="frame" style="shape=umlFrame;whiteSpace=wrap;html=1;pointerEvents=0;" vertex="1" parent="1">
          <mxGeometry x="110" y="400" width="900" height="400" as="geometry" />
        </mxCell>
        <mxCell id="jdpxN7b3ZD2J9c9i_rUH-2" value="" style="endArrow=classic;endFill=1;html=1;rounded=0;dashed=1;" edge="1" parent="1">
          <mxGeometry width="160" relative="1" as="geometry">
            <mxPoint x="950" y="419" as="sourcePoint" />
            <mxPoint x="790" y="419" as="targetPoint" />
          </mxGeometry>
        </mxCell>
        <mxCell id="jdpxN7b3ZD2J9c9i_rUH-3" value="7.Return null" style="edgeLabel;html=1;align=center;verticalAlign=middle;resizable=0;points=[];" vertex="1" connectable="0" parent="jdpxN7b3ZD2J9c9i_rUH-2">
          <mxGeometry x="0.2669" y="2" relative="1" as="geometry">
            <mxPoint x="11" y="-11" as="offset" />
          </mxGeometry>
        </mxCell>
        <mxCell id="jdpxN7b3ZD2J9c9i_rUH-4" value="" style="endArrow=classic;endFill=1;html=1;rounded=0;dashed=1;entryX=0.953;entryY=0.342;entryDx=0;entryDy=0;entryPerimeter=0;" edge="1" parent="1" target="y8tanEOZA4e39XUYYDlI-19">
          <mxGeometry width="160" relative="1" as="geometry">
            <mxPoint x="780" y="431" as="sourcePoint" />
            <mxPoint x="620" y="460" as="targetPoint" />
          </mxGeometry>
        </mxCell>
        <mxCell id="jdpxN7b3ZD2J9c9i_rUH-5" value="8.Return null" style="edgeLabel;html=1;align=center;verticalAlign=middle;resizable=0;points=[];" vertex="1" connectable="0" parent="jdpxN7b3ZD2J9c9i_rUH-4">
          <mxGeometry x="0.2669" y="2" relative="1" as="geometry">
            <mxPoint x="11" y="-11" as="offset" />
          </mxGeometry>
        </mxCell>
        <mxCell id="jdpxN7b3ZD2J9c9i_rUH-6" value="" style="endArrow=classic;endFill=1;html=1;rounded=0;dashed=1;exitX=0.022;exitY=0.384;exitDx=0;exitDy=0;exitPerimeter=0;entryX=0.878;entryY=0.4;entryDx=0;entryDy=0;entryPerimeter=0;" edge="1" parent="1" source="y8tanEOZA4e39XUYYDlI-19" target="y8tanEOZA4e39XUYYDlI-18">
          <mxGeometry width="160" relative="1" as="geometry">
            <mxPoint x="610" y="470" as="sourcePoint" />
            <mxPoint x="420" y="450" as="targetPoint" />
          </mxGeometry>
        </mxCell>
        <mxCell id="jdpxN7b3ZD2J9c9i_rUH-7" value="9.Return null" style="edgeLabel;html=1;align=center;verticalAlign=middle;resizable=0;points=[];" vertex="1" connectable="0" parent="jdpxN7b3ZD2J9c9i_rUH-6">
          <mxGeometry x="0.2669" y="2" relative="1" as="geometry">
            <mxPoint x="11" y="-11" as="offset" />
          </mxGeometry>
        </mxCell>
        <mxCell id="jdpxN7b3ZD2J9c9i_rUH-8" value="" style="endArrow=classic;endFill=1;html=1;rounded=0;dashed=1;entryX=0.833;entryY=0.427;entryDx=0;entryDy=0;entryPerimeter=0;" edge="1" parent="1" target="y8tanEOZA4e39XUYYDlI-16">
          <mxGeometry width="160" relative="1" as="geometry">
            <mxPoint x="410" y="463" as="sourcePoint" />
            <mxPoint x="230" y="480" as="targetPoint" />
          </mxGeometry>
        </mxCell>
        <mxCell id="jdpxN7b3ZD2J9c9i_rUH-9" value="10.Return not found view" style="edgeLabel;html=1;align=center;verticalAlign=middle;resizable=0;points=[];" vertex="1" connectable="0" parent="jdpxN7b3ZD2J9c9i_rUH-8">
          <mxGeometry x="0.2669" y="2" relative="1" as="geometry">
            <mxPoint x="24" y="-15" as="offset" />
          </mxGeometry>
        </mxCell>
        <mxCell id="jdpxN7b3ZD2J9c9i_rUH-11" value="" style="endArrow=none;dashed=1;html=1;rounded=0;exitX=-0.001;exitY=0.394;exitDx=0;exitDy=0;exitPerimeter=0;entryX=1.003;entryY=0.396;entryDx=0;entryDy=0;entryPerimeter=0;" edge="1" parent="1" source="jdpxN7b3ZD2J9c9i_rUH-1" target="jdpxN7b3ZD2J9c9i_rUH-1">
          <mxGeometry width="50" height="50" relative="1" as="geometry">
            <mxPoint x="350" y="600" as="sourcePoint" />
            <mxPoint x="400" y="550" as="targetPoint" />
          </mxGeometry>
        </mxCell>
        <mxCell id="jdpxN7b3ZD2J9c9i_rUH-12" value="[invalid infor]" style="text;html=1;align=center;verticalAlign=middle;resizable=0;points=[];autosize=1;strokeColor=none;fillColor=none;" vertex="1" parent="1">
          <mxGeometry x="115" y="470" width="90" height="30" as="geometry" />
        </mxCell>
        <mxCell id="jdpxN7b3ZD2J9c9i_rUH-13" value="[valid infor]" style="text;html=1;align=center;verticalAlign=middle;resizable=0;points=[];autosize=1;strokeColor=none;fillColor=none;" vertex="1" parent="1">
          <mxGeometry x="115" y="618" width="80" height="30" as="geometry" />
        </mxCell>
        <mxCell id="jdpxN7b3ZD2J9c9i_rUH-14" value="" style="endArrow=classic;html=1;rounded=0;entryX=1.052;entryY=0.697;entryDx=0;entryDy=0;entryPerimeter=0;exitX=-0.115;exitY=0.691;exitDx=0;exitDy=0;exitPerimeter=0;dashed=1;" edge="1" parent="1" source="y8tanEOZA4e39XUYYDlI-21" target="y8tanEOZA4e39XUYYDlI-20">
          <mxGeometry width="50" height="50" relative="1" as="geometry">
            <mxPoint x="680" y="600" as="sourcePoint" />
            <mxPoint x="730" y="550" as="targetPoint" />
          </mxGeometry>
        </mxCell>
        <mxCell id="jdpxN7b3ZD2J9c9i_rUH-15" value="11.Return result" style="edgeLabel;html=1;align=center;verticalAlign=middle;resizable=0;points=[];" vertex="1" connectable="0" parent="jdpxN7b3ZD2J9c9i_rUH-14">
          <mxGeometry x="0.2911" y="1" relative="1" as="geometry">
            <mxPoint x="15" y="-10" as="offset" />
          </mxGeometry>
        </mxCell>
        <mxCell id="jdpxN7b3ZD2J9c9i_rUH-16" value="" style="endArrow=classic;html=1;rounded=0;entryX=0.941;entryY=0.737;entryDx=0;entryDy=0;entryPerimeter=0;dashed=1;exitX=0;exitY=0.766;exitDx=0;exitDy=0;exitPerimeter=0;" edge="1" parent="1" source="y8tanEOZA4e39XUYYDlI-20" target="y8tanEOZA4e39XUYYDlI-19">
          <mxGeometry width="50" height="50" relative="1" as="geometry">
            <mxPoint x="780" y="660" as="sourcePoint" />
            <mxPoint x="627" y="661" as="targetPoint" />
          </mxGeometry>
        </mxCell>
        <mxCell id="jdpxN7b3ZD2J9c9i_rUH-17" value="12.Return result" style="edgeLabel;html=1;align=center;verticalAlign=middle;resizable=0;points=[];" vertex="1" connectable="0" parent="jdpxN7b3ZD2J9c9i_rUH-16">
          <mxGeometry x="0.2911" y="1" relative="1" as="geometry">
            <mxPoint x="15" y="-10" as="offset" />
          </mxGeometry>
        </mxCell>
        <mxCell id="jdpxN7b3ZD2J9c9i_rUH-18" value="" style="endArrow=classic;html=1;rounded=0;entryX=1;entryY=0.75;entryDx=0;entryDy=0;dashed=1;" edge="1" parent="1" target="y8tanEOZA4e39XUYYDlI-18">
          <mxGeometry width="50" height="50" relative="1" as="geometry">
            <mxPoint x="590" y="643" as="sourcePoint" />
            <mxPoint x="400" y="690" as="targetPoint" />
          </mxGeometry>
        </mxCell>
        <mxCell id="jdpxN7b3ZD2J9c9i_rUH-19" value="13.Return result" style="edgeLabel;html=1;align=center;verticalAlign=middle;resizable=0;points=[];" vertex="1" connectable="0" parent="jdpxN7b3ZD2J9c9i_rUH-18">
          <mxGeometry x="0.2911" y="1" relative="1" as="geometry">
            <mxPoint x="15" y="-10" as="offset" />
          </mxGeometry>
        </mxCell>
        <mxCell id="jdpxN7b3ZD2J9c9i_rUH-20" value="" style="endArrow=classic;html=1;rounded=0;entryX=0.894;entryY=0.766;entryDx=0;entryDy=0;dashed=1;exitX=-0.012;exitY=0.819;exitDx=0;exitDy=0;exitPerimeter=0;entryPerimeter=0;" edge="1" parent="1" source="y8tanEOZA4e39XUYYDlI-18" target="y8tanEOZA4e39XUYYDlI-16">
          <mxGeometry width="50" height="50" relative="1" as="geometry">
            <mxPoint x="401" y="680" as="sourcePoint" />
            <mxPoint x="230" y="680" as="targetPoint" />
          </mxGeometry>
        </mxCell>
        <mxCell id="jdpxN7b3ZD2J9c9i_rUH-21" value="14.Return valid view" style="edgeLabel;html=1;align=center;verticalAlign=middle;resizable=0;points=[];" vertex="1" connectable="0" parent="jdpxN7b3ZD2J9c9i_rUH-20">
          <mxGeometry x="0.2911" y="1" relative="1" as="geometry">
            <mxPoint x="15" y="-10" as="offset" />
          </mxGeometry>
        </mxCell>
        <mxCell id="jdpxN7b3ZD2J9c9i_rUH-22" value="" style="endArrow=none;dashed=1;html=1;rounded=0;entryX=0.5;entryY=0.984;entryDx=0;entryDy=0;entryPerimeter=0;" edge="1" parent="1" target="y8tanEOZA4e39XUYYDlI-16">
          <mxGeometry width="50" height="50" relative="1" as="geometry">
            <mxPoint x="210" y="950" as="sourcePoint" />
            <mxPoint x="210" y="840" as="targetPoint" />
          </mxGeometry>
        </mxCell>
        <mxCell id="jdpxN7b3ZD2J9c9i_rUH-23" value="" style="endArrow=none;dashed=1;html=1;rounded=0;" edge="1" parent="1" target="y8tanEOZA4e39XUYYDlI-18">
          <mxGeometry width="50" height="50" relative="1" as="geometry">
            <mxPoint x="414" y="950" as="sourcePoint" />
            <mxPoint x="413.71" y="850" as="targetPoint" />
          </mxGeometry>
        </mxCell>
        <mxCell id="jdpxN7b3ZD2J9c9i_rUH-24" value="" style="endArrow=none;dashed=1;html=1;rounded=0;" edge="1" parent="1" target="y8tanEOZA4e39XUYYDlI-19">
          <mxGeometry width="50" height="50" relative="1" as="geometry">
            <mxPoint x="595" y="940" as="sourcePoint" />
            <mxPoint x="594.71" y="820" as="targetPoint" />
          </mxGeometry>
        </mxCell>
        <mxCell id="jdpxN7b3ZD2J9c9i_rUH-25" value="" style="endArrow=classic;html=1;rounded=0;" edge="1" parent="1">
          <mxGeometry width="50" height="50" relative="1" as="geometry">
            <mxPoint x="60" y="250" as="sourcePoint" />
            <mxPoint x="210" y="250" as="targetPoint" />
          </mxGeometry>
        </mxCell>
        <mxCell id="jdpxN7b3ZD2J9c9i_rUH-26" value="2.Click button &#39;Search&#39;" style="edgeLabel;html=1;align=center;verticalAlign=middle;resizable=0;points=[];" vertex="1" connectable="0" parent="jdpxN7b3ZD2J9c9i_rUH-25">
          <mxGeometry x="0.2978" relative="1" as="geometry">
            <mxPoint x="-17" y="-10" as="offset" />
          </mxGeometry>
        </mxCell>
        <mxCell id="jdpxN7b3ZD2J9c9i_rUH-27" value="" style="endArrow=none;dashed=1;html=1;rounded=0;" edge="1" parent="1">
          <mxGeometry width="50" height="50" relative="1" as="geometry">
            <mxPoint x="785" y="900" as="sourcePoint" />
            <mxPoint x="785" y="700" as="targetPoint" />
          </mxGeometry>
        </mxCell>
        <mxCell id="jdpxN7b3ZD2J9c9i_rUH-28" value="" style="endArrow=none;dashed=1;html=1;rounded=0;" edge="1" parent="1">
          <mxGeometry width="50" height="50" relative="1" as="geometry">
            <mxPoint x="950" y="870" as="sourcePoint" />
            <mxPoint x="950" y="680" as="targetPoint" />
          </mxGeometry>
        </mxCell>
        <mxCell id="jdpxN7b3ZD2J9c9i_rUH-29" value="" style="endArrow=classic;html=1;rounded=0;exitX=0.024;exitY=0.977;exitDx=0;exitDy=0;exitPerimeter=0;dashed=1;" edge="1" parent="1" source="y8tanEOZA4e39XUYYDlI-16">
          <mxGeometry width="50" height="50" relative="1" as="geometry">
            <mxPoint x="210" y="820" as="sourcePoint" />
            <mxPoint x="60" y="815" as="targetPoint" />
          </mxGeometry>
        </mxCell>
        <mxCell id="jdpxN7b3ZD2J9c9i_rUH-30" value="15.Display view" style="edgeLabel;html=1;align=center;verticalAlign=middle;resizable=0;points=[];" vertex="1" connectable="0" parent="jdpxN7b3ZD2J9c9i_rUH-29">
          <mxGeometry x="0.2819" y="1" relative="1" as="geometry">
            <mxPoint x="18" y="14" as="offset" />
          </mxGeometry>
        </mxCell>
      </root>
    </mxGraphModel>
  </diagram>
</mxfile>
